<?xml version="1.0" encoding="UTF-8"?>
<!DOCTYPE svg PUBLIC "-//W3C//DTD SVG 1.1//EN" "http://www.w3.org/Graphics/SVG/1.1/DTD/svg11.dtd">
<!-- Creator: CorelDRAW 2019 (64-Bit 评估版) -->
<svg xmlns="http://www.w3.org/2000/svg" xml:space="preserve" width="1024px" height="1024px" version="1.1" style="shape-rendering:geometricPrecision; text-rendering:geometricPrecision; image-rendering:optimizeQuality; fill-rule:evenodd; clip-rule:evenodd"
viewBox="0 0 1024 1024"
 xmlns:xlink="http://www.w3.org/1999/xlink"
 xmlns:xodm="http://www.corel.com/coreldraw/odm/2003">
 <defs>
  <style type="text/css">
   <![CDATA[
    .fil0 {fill:#A1A1A1}
    .fil7 {fill:#44050F;fill-rule:nonzero}
    .fil11 {fill:#7E2100;fill-rule:nonzero}
    .fil13 {fill:#890011;fill-rule:nonzero}
    .fil15 {fill:#99071C;fill-rule:nonzero}
    .fil9 {fill:#A02100;fill-rule:nonzero}
    .fil1 {fill:#E27500;fill-rule:nonzero}
    .fil2 {fill:#FDBF01;fill-rule:nonzero}
    .fil8 {fill:white;fill-rule:nonzero}
    .fil10 {fill:url(#id0);fill-rule:nonzero}
    .fil5 {fill:url(#id1);fill-rule:nonzero}
    .fil14 {fill:url(#id2);fill-rule:nonzero}
    .fil3 {fill:url(#id3);fill-rule:nonzero}
    .fil4 {fill:url(#id4);fill-rule:nonzero}
    .fil6 {fill:url(#id5);fill-rule:nonzero}
    .fil12 {fill:url(#id6);fill-rule:nonzero}
   ]]>
  </style>
  <linearGradient id="id0" gradientUnits="userSpaceOnUse" x1="538" y1="733" x2="496" y2="537">
   <stop offset="0" style="stop-opacity:1; stop-color:#D13B18"/>
   <stop offset="1" style="stop-opacity:1; stop-color:#F9AA2A"/>
  </linearGradient>
  <linearGradient id="id1" gradientUnits="userSpaceOnUse" x1="166" y1="556" x2="869" y2="556">
   <stop offset="0" style="stop-opacity:1; stop-color:#F6D101"/>
   <stop offset="1" style="stop-opacity:1; stop-color:#FBA300"/>
  </linearGradient>
  <linearGradient id="id2" gradientUnits="userSpaceOnUse" x1="435" y1="207" x2="602" y2="374">
   <stop offset="0" style="stop-opacity:1; stop-color:#EF3331"/>
   <stop offset="1" style="stop-opacity:1; stop-color:#BC080C"/>
  </linearGradient>
  <linearGradient id="id3" gradientUnits="userSpaceOnUse" x1="680" y1="246" x2="887" y2="321">
   <stop offset="0" style="stop-opacity:1; stop-color:#FBCA00"/>
   <stop offset="1" style="stop-opacity:1; stop-color:#C6573D"/>
  </linearGradient>
  <linearGradient id="id4" gradientUnits="userSpaceOnUse" x1="148" y1="321" x2="355" y2="246">
   <stop offset="0" style="stop-opacity:1; stop-color:#C6573D"/>
   <stop offset="1" style="stop-opacity:1; stop-color:#FBCA00"/>
  </linearGradient>
  <linearGradient id="id5" gradientUnits="userSpaceOnUse" x1="332" y1="438" x2="865" y2="1235">
   <stop offset="0" style="stop-opacity:1; stop-color:#FFF6EF"/>
   <stop offset="1" style="stop-opacity:1; stop-color:#FF9742"/>
  </linearGradient>
  <radialGradient id="id6" gradientUnits="userSpaceOnUse" gradientTransform="matrix(0.813895 -0 -0 0.813897 96 132)" cx="517" cy="708" r="426" fx="517" fy="708">
   <stop offset="0" style="stop-opacity:1; stop-color:#F9C301"/>
   <stop offset="1" style="stop-opacity:1; stop-color:#EB9E01"/>
  </radialGradient>
 </defs>
 <g id="图层_x0020_1">
  <metadata id="CorelCorpID_0Corel-Layer"/>
  <g id="_1771698126256">
   <circle class="fil0" cx="517" cy="514" r="512"/>
   <g>
    <path class="fil1" d="M812 473c0,0 44,4 67,-55 11,-32 2,-55 2,-55 0,0 -20,49 -85,61l15 49z"/>
    <path class="fil2" d="M778 379c0,0 62,-3 103,-15 0,0 -9,41 -80,61l-23 -45z"/>
    <g>
     <path class="fil3" d="M712 300c0,0 47,-37 48,-80 0,-43 0,-54 15,-61 15,-7 98,23 77,147 -12,70 -56,103 -56,103l-85 -109z"/>
    </g>
    <path class="fil1" d="M223 473c0,0 -44,4 -67,-55 -11,-32 -2,-55 -2,-55 0,0 20,49 85,61l-15 49z"/>
    <path class="fil2" d="M257 379c0,0 -62,-3 -103,-15 0,0 9,41 80,61l23 -45z"/>
    <g>
     <path class="fil4" d="M323 300c0,0 -47,-37 -48,-80 0,-43 0,-54 -15,-61 -15,-7 -98,23 -77,147 12,70 56,103 56,103l84 -109z"/>
    </g>
    <g>
     <path class="fil5" d="M798 408c-61,-160 -238,-161 -280,-159 -42,-2 -220,0 -280,159 -69,182 -84,261 -63,313 19,47 163,134 321,143l0 0c7,0 14,0 22,0 7,0 14,0 22,0l0 0c158,-8 302,-95 321,-143 21,-52 6,-131 -63,-313z"/>
    </g>
    <path class="fil6" d="M518 571c0,0 -393,-61 -365,115 25,158 288,183 365,183 77,0 344,-25 365,-183 24,-176 -365,-115 -365,-115z"/>
    <path class="fil7" d="M431 476c0,21 -17,38 -38,38 -21,0 -38,-17 -38,-38 0,-21 17,-38 38,-38 21,0 38,17 38,38z"/>
    <path class="fil8" d="M416 470c0,6 -5,10 -10,10 -6,0 -10,-5 -10,-10 0,-6 5,-10 10,-10 6,0 10,5 10,10z"/>
    <path class="fil7" d="M680 476c0,21 -17,38 -38,38 -21,0 -38,-17 -38,-38 0,-21 17,-38 38,-38 21,0 38,17 38,38z"/>
    <path class="fil8" d="M665 470c0,6 -5,10 -10,10 -6,0 -10,-5 -10,-10 0,-6 5,-10 10,-10 6,0 10,5 10,10z"/>
    <g>
     <path class="fil9" d="M642 641c-10,-81 -123,-78 -123,-78 0,0 -114,-3 -123,78 -10,81 123,74 123,74 0,0 133,7 123,-74z"/>
    </g>
    <g>
     <path class="fil10" d="M640 637c-10,-81 -123,-78 -123,-78 0,0 -114,-3 -123,78 -10,81 123,74 123,74 0,0 133,7 123,-74z"/>
    </g>
    <path class="fil11" d="M465 669c3,-3 3,-8 0,-11 -7,-8 -21,-22 -35,-26 -20,-5 -29,26 -25,30 5,4 18,16 49,13 5,-1 8,-4 11,-7z"/>
    <path class="fil11" d="M569 669c-3,-3 -3,-8 0,-11 7,-8 21,-22 35,-26 20,-5 29,26 25,30 -5,4 -18,16 -49,13 -5,-1 -8,-4 -11,-7z"/>
    <g>
     <path class="fil12" d="M586 646c-4,3 -4,8 -1,11 11,10 31,28 28,54 -3,26 -66,35 -96,36 -30,0 -93,-10 -96,-36 -3,-27 16,-45 26,-54 3,-3 3,-8 -1,-11l-6 -4 -7 -5c-3,-2 -6,-1 -8,1 -10,9 -37,34 -33,76 7,58 101,65 125,65 19,0 118,-7 124,-65 5,-40 -24,-65 -35,-75 -2,-2 -6,-3 -9,-1l-12 8z"/>
    </g>
    <path class="fil13" d="M480 329c6,8 0,22 -11,27 0,0 54,8 93,-7 38,-15 71,-57 53,-82 -19,-26 -45,-35 -80,-37l-54 100z"/>
    <path class="fil14" d="M533 224c0,0 -101,-4 -114,46 -7,30 51,49 57,58 6,8 5,22 -7,28 0,0 54,4 89,-11 35,-15 75,-53 55,-81 -19,-26 -46,-38 -81,-40z"/>
    <path class="fil15" d="M529 276c2,9 1,18 -1,27 -2,9 -5,18 -10,25 -1,2 -2,4 -4,6l-5 5c-2,2 -3,3 -5,5 -2,2 -4,3 -6,4 -8,5 -17,8 -25,9 8,-4 16,-7 23,-13 7,-5 13,-11 17,-19 5,-7 8,-15 10,-23 2,-8 4,-17 5,-26z"/>
    <path class="fil15" d="M592 280c5,12 5,26 0,38 -3,6 -6,12 -11,16 -2,2 -5,4 -7,6 -3,2 -5,3 -8,5 2,-2 5,-4 7,-7 2,-2 4,-4 6,-7l3 -4 2 -4c1,-1 1,-3 2,-4 1,-1 1,-3 2,-4 2,-5 4,-11 4,-17 1,-6 1,-12 0,-18z"/>
    <path class="fil15" d="M519 355c6,-2 11,-6 15,-9 5,-4 9,-8 13,-12 4,-5 7,-10 9,-15 2,-5 4,-11 5,-17 0,3 0,6 0,9 -1,3 -1,6 -2,9 -2,6 -5,12 -9,17 -8,10 -19,17 -32,18z"/>
   </g>
  </g>
 </g>
</svg>
